# xmcd
#
# Track frame offsets:
#	182
#	9912
#	22142
#	34610
#	46375
#	57152
#	68055
#	81275
#	92752
#	107122
#
# Disc length: 1587 seconds
#
# Revision: 2
# Processed by: cddbd v1.4PL0 Copyright (c) Steve Scherf et al.
# Submitted via: audiograbber 1.80.04
#
DISCID=7806310a
DTITLE=Otis Redding - Respect
DYEAR=1993
DGENRE=R&B
TTITLE0=Respect
TTITLE1=Mr. Pitiful
TTITLE2=Satisfaction
TTITLE3=Security
TTITLE4=That's How Strong My Love Is
TTITLE5=Pain In My Heart
TTITLE6=I've Been Loving You Too Long (To Stop Now)
TTITLE7=These Arms Of Mine
TTITLE8=My Lover's Prayer
TTITLE9=Glory Of Love
EXTD=Rhino Special Editions
EXTT0=
EXTT1=
EXTT2=
EXTT3=
EXTT4=
EXTT5=
EXTT6=
EXTT7=
EXTT8=
EXTT9=
PLAYORDER=
